<svg height="46" viewBox="0 0 46 46" width="46" xmlns="http://www.w3.org/2000/svg"><g fill="none" fill-rule="evenodd" transform="translate(1 1)"><path d="m33.7784857 35.6185388c-1.8125306.8045714-3.9344081-.0125715-4.7389796-1.8251021-.8045714-1.8134285.0130204-3.9344081 1.825551-4.7394285 1.8129796-.8041225 3.9339592.0130204 4.7389796 1.825551.8041225 1.8125306-.0130204 3.9344081-1.825551 4.7389796m10.1186531-.7637143c-.6052245-.3282041-1.210449-.6550612-1.8143266-.9850612-.3111428-.1701633-.5006122-.4269796-.5455102-.7547347-.0067347-.0619592-.020204-.1203266-.0175102-.1872245.0197551-.5311429.0049388-1.0600408-.0395102-1.5893878-.0058367-.0727347.0026939-.1387347.0089796-.2056326l.0305306-.1836327c.0686939-.2527755.2231429-.4633469.4759184-.6191428.4215918-.2613062.8467755-.5167755 1.2710612-.7753878.1921633-.1162857.3838776-.2330204.5805306-.3537959-.352-1.1395102-.8292653-2.2161633-1.4389796-3.234449-.0193061.0053878-.0318775.0085306-.0475918.0130204l.0098776-.0579183c-.6658368.196653-1.3325715.3901632-1.9975102.5904081-.4453878.1342449-.8346531.0520816-1.1529796-.2900408-.3623266-.3892653-.7475511-.7524898-1.1543266-1.0964082-.241102-.2033877-.3645714-.4525714-.3793877-.7345306.000449-.0830612.0067347-.1679183.0269388-.2563673.1557959-.681551.3259591-1.3590612.4952244-2.0374694.0089796-.0345714.0062858-.0583674-.0013469-.0790204.0062857-.0251429.0121225-.0484898.0179592-.0736327-1.056449-.5571836-2.156898-.9823673-3.3103265-1.2719592-.0202041.0359184-.0350204.0619592-.0489388.088-.3291021.6038776-.6559592 1.2095511-.9868572 1.8120817-.2056326.374449-.526653.5773877-.9545306.5657143-.5567347-.0152653-1.1107755-.0022449-1.6652653.0413061-.4121632.0318775-.7430612-.1418776-.9612653-.4893878-.372653-.5917551-.7331837-1.1911428-1.0937143-1.7905306-.042653-.0709388-.0821632-.0790204-.1495102-.0543265-.4759183.1782449-.9563265.3443673-1.4273061.5347347-.5634694.2280816-1.1017959.5104898-1.6262041.8180408-.0404081.0237959-.0754285.0475918-.0722857.1019184-.0062857.0035918-.0130204.0062857-.0188571.0094285.0107755.0404082.020204.0749796.0296326.1095511.1948572.6559591.3910612 1.3110204.5823266 1.9678775.0233469.0799184.0323265.1562449.0404081.2330204.0098776.3205714-.109102.6043265-.3852245.8512653-.3775918.3394286-.7197143.7125306-1.0470204 1.1022449-.2891428.3452653-.6617959.462-1.1.3573878-.6177959-.1463674-1.2337959-.2981225-1.8506939-.4467347-.0812653-.0197551-.1625306-.0390612-.2469387-.0592653-.0906939.1719592-.155796.352-.2397551.5262041-.0103266.021102-.022.0417551-.0323266.0633061-.0148163.0314285-.0255918.0642041-.0404081.0956326-.3951021.8463266-.7318368 1.7110613-.9621633 2.618449.0053878.0031429.0098776.0053878.0152653.0080816-.0040408.0359184.0031429.0619592.0471429.0853062.6007347.3223673 1.1987755.6501224 1.7995102.9733877.4130612.2217959.6245306.5589796.6056734 1.0299592-.020204.5154286-.0098775 1.0304082.0395102 1.5440408.0071837.0749796-.0013469.1427755-.0058367.2119184-.0300816.3102449-.1858775.5679592-.4687347.748449-.3798367.2424489-.7682041.4723265-1.1529796.7066938-.2437959.1486123-.4866939.2972245-.7286939.4444898.001796.0184082.000898.0305307.0053878.0417551.000449.0022449.000898.0040409.0017959.0058368-.0040408.0026939-.0080816.0044898-.0112245.0067347.001347.0157143.001347.021551.0031429.0273877.0422041.1382857.1046122.2680408.1508571.4040817.0098776.0291836.0179592.0579183.0282857.087102.0139184.0381633.0323266.0745306.0462449.1122449.3147347.8840408.6909796 1.7406939 1.1704898 2.551551.0354694.0610612.0704898.0466939.1180817.0327755.6721224-.1993469 1.3433469-.4018367 2.0168163-.5948979.3937551-.1126939.7547347-.0296327 1.0375918.2648979.3955511.4112653.8081633.8023266 1.2396327 1.1763266.2244898.1944081.3340408.4364081.3434694.7066938-.000449.0960817-.0107755.1971021-.0363674.3017143-.1203265.4997143-.242449.9985306-.3632245 1.497347-.0471428.1944081-.0938367.3897142-.1400816.5800816.0125714.0098775.0166122.0139184.021551.0170612.001347 0 .0026939.000449.0035919.000898.0107755.0493877.0534285.0781224.1611836.1373877.0211021.0116735.0422041.022898.0642041.0336735.6770612.3416735 1.3779184.6312653 2.1003265.8638367.2891429.0924898.5832245.1710613.8746123.2550204.0457959.0134694.0848571.022898.1189796-.0386122.328653-.6106122.6613469-1.2185306.9931428-1.8273469.2123674-.3892653.5423674-.5917551.9841633-.5787347.5383265.0157143 1.0744082.0053877 1.6118367-.0413062.4373062-.0368163.7776327.1418776 1.0102041.5149796.1912653.3053062.3766939.6137551.5648163.9217551.1876735.3066531.374898.6142041.5652654.924898 1.1413061-.351102 2.222-.8279184 3.2434285-1.4362857-.0085306-.0305306-.0143673-.0525306-.020653-.0754286.0017959-.0125714.0089796-.022449.0026938-.0422041-.1997959-.6635918-.395551-1.3285306-.592204-1.9930204-.0296327-.1001224-.044898-.196653-.0507347-.2904898-.0049388-.2684898.087102-.5154285.2990204-.7201632.418-.4031837.8162449-.8211837 1.1983265-1.2571429l.4920816-.3488571c.1656735-.0422041.3443674-.0471429.5360817-.0022449.351551.0808163.7017551.1688163 1.0524081.2532245.3506531.0848571.7013062.1697142 1.056.2554693.5585306-1.0537551.9846123-2.1528571 1.2755511-3.3044898-.0359184-.020653-.0619592-.0354693-.088449-.0493877" fill="#fc6d26"/><path d="m33.7784857 35.6185388c-1.8125306.8045714-3.9344081-.0125715-4.7389796-1.8251021-.8045714-1.8134285.0130204-3.9344081 1.825551-4.7394285 1.8129796-.8041225 3.9339592.0130204 4.7389796 1.825551.8041225 1.8125306-.0130204 3.9344081-1.825551 4.7389796zm10.1186531-.7637143c-.6052245-.3282041-1.210449-.6550612-1.8143266-.9850612-.3111428-.1701633-.5006122-.4269796-.5455102-.7547347-.0067347-.0619592-.020204-.1203266-.0175102-.1872245.0197551-.5311429.0049388-1.0600408-.0395102-1.5893878-.0058367-.0727347.0026939-.1387347.0089796-.2056326l.0305306-.1836327c.0686939-.2527755.2231429-.4633469.4759184-.6191428.4215918-.2613062.8467755-.5167755 1.2710612-.7753878.1921633-.1162857.3838776-.2330204.5805306-.3537959-.352-1.1395102-.8292653-2.2161633-1.4389796-3.234449-.0193061.0053878-.0318775.0085306-.0475918.0130204l.0098776-.0579183c-.6658368.196653-1.3325715.3901632-1.9975102.5904081-.4453878.1342449-.8346531.0520816-1.1529796-.2900408-.3623266-.3892653-.7475511-.7524898-1.1543266-1.0964082-.241102-.2033877-.3645714-.4525714-.3793877-.7345306.000449-.0830612.0067347-.1679183.0269388-.2563673.1557959-.681551.3259591-1.3590612.4952244-2.0374694.0089796-.0345714.0062858-.0583674-.0013469-.0790204.0062857-.0251429.0121225-.0484898.0179592-.0736327-1.056449-.5571836-2.156898-.9823673-3.3103265-1.2719592-.0202041.0359184-.0350204.0619592-.0489388.088-.3291021.6038776-.6559592 1.2095511-.9868572 1.8120817-.2056326.374449-.526653.5773877-.9545306.5657143-.5567347-.0152653-1.1107755-.0022449-1.6652653.0413061-.4121632.0318775-.7430612-.1418776-.9612653-.4893878-.372653-.5917551-.7331837-1.1911428-1.0937143-1.7905306-.042653-.0709388-.0821632-.0790204-.1495102-.0543265-.4759183.1782449-.9563265.3443673-1.4273061.5347347-.5634694.2280816-1.1017959.5104898-1.6262041.8180408-.0404081.0237959-.0754285.0475918-.0722857.1019184-.0062857.0035918-.0130204.0062857-.0188571.0094285.0107755.0404082.020204.0749796.0296326.1095511.1948572.6559591.3910612 1.3110204.5823266 1.9678775.0233469.0799184.0323265.1562449.0404081.2330204.0098776.3205714-.109102.6043265-.3852245.8512653-.3775918.3394286-.7197143.7125306-1.0470204 1.1022449-.2891428.3452653-.6617959.462-1.1.3573878-.6177959-.1463674-1.2337959-.2981225-1.8506939-.4467347-.0812653-.0197551-.1625306-.0390612-.2469387-.0592653-.0906939.1719592-.155796.352-.2397551.5262041-.0103266.021102-.022.0417551-.0323266.0633061-.0148163.0314285-.0255918.0642041-.0404081.0956326-.3951021.8463266-.7318368 1.7110613-.9621633 2.618449.0053878.0031429.0098776.0053878.0152653.0080816-.0040408.0359184.0031429.0619592.0471429.0853062.6007347.3223673 1.1987755.6501224 1.7995102.9733877.4130612.2217959.6245306.5589796.6056734 1.0299592-.020204.5154286-.0098775 1.0304082.0395102 1.5440408.0071837.0749796-.0013469.1427755-.0058367.2119184-.0300816.3102449-.1858775.5679592-.4687347.748449-.3798367.2424489-.7682041.4723265-1.1529796.7066938-.2437959.1486123-.4866939.2972245-.7286939.4444898.001796.0184082.000898.0305307.0053878.0417551.000449.0022449.000898.0040409.0017959.0058368-.0040408.0026939-.0080816.0044898-.0112245.0067347.001347.0157143.001347.021551.0031429.0273877.0422041.1382857.1046122.2680408.1508571.4040817.0098776.0291836.0179592.0579183.0282857.087102.0139184.0381633.0323266.0745306.0462449.1122449.3147347.8840408.6909796 1.7406939 1.1704898 2.551551.0354694.0610612.0704898.0466939.1180817.0327755.6721224-.1993469 1.3433469-.4018367 2.0168163-.5948979.3937551-.1126939.7547347-.0296327 1.0375918.2648979.3955511.4112653.8081633.8023266 1.2396327 1.1763266.2244898.1944081.3340408.4364081.3434694.7066938-.000449.0960817-.0107755.1971021-.0363674.3017143-.1203265.4997143-.242449.9985306-.3632245 1.497347-.0471428.1944081-.0938367.3897142-.1400816.5800816.0125714.0098775.0166122.0139184.021551.0170612.001347 0 .0026939.000449.0035919.000898.0107755.0493877.0534285.0781224.1611836.1373877.0211021.0116735.0422041.022898.0642041.0336735.6770612.3416735 1.3779184.6312653 2.1003265.8638367.2891429.0924898.5832245.1710613.8746123.2550204.0457959.0134694.0848571.022898.1189796-.0386122.328653-.6106122.6613469-1.2185306.9931428-1.8273469.2123674-.3892653.5423674-.5917551.9841633-.5787347.5383265.0157143 1.0744082.0053877 1.6118367-.0413062.4373062-.0368163.7776327.1418776 1.0102041.5149796.1912653.3053062.3766939.6137551.5648163.9217551.1876735.3066531.374898.6142041.5652654.924898 1.1413061-.351102 2.222-.8279184 3.2434285-1.4362857-.0085306-.0305306-.0143673-.0525306-.020653-.0754286.0017959-.0125714.0089796-.022449.0026938-.0422041-.1997959-.6635918-.395551-1.3285306-.592204-1.9930204-.0296327-.1001224-.044898-.196653-.0507347-.2904898-.0049388-.2684898.087102-.5154285.2990204-.7201632.418-.4031837.8162449-.8211837 1.1983265-1.2571429l.4920816-.3488571c.1656735-.0422041.3443674-.0471429.5360817-.0022449.351551.0808163.7017551.1688163 1.0524081.2532245.3506531.0848571.7013062.1697142 1.056.2554693.5585306-1.0537551.9846123-2.1528571 1.2755511-3.3044898-.0359184-.020653-.0619592-.0354693-.088449-.0493877z" stroke="#333" stroke-linecap="round" stroke-linejoin="round" stroke-width="2"/><path d="m14.4530571 14.4612735c-1.4008163 1.4044081-3.6753469 1.407551-5.07930608.0067347-1.40440816-1.4008164-1.408-3.675347-.00673469-5.07975514 1.40036737-1.40485714 3.67444897-1.40755102 5.07885717-.00673469 1.4048571 1.40081633 1.408 3.67489793.0071836 5.07975513m9.2615511-4.3488164c-.0408572-.0058367-.0704898-.0103265-.1005715-.0143673-.682-.088-1.3653469-.17375511-2.0473469-.26444898-.351551-.0462449-.6204898-.21730613-.7812245-.50689796-.0282857-.05522449-.0615102-.10506123-.0835102-.16836735-.1728571-.50240816-.3780408-.99044898-.6097143-1.46861224-.0323265-.06510205-.0475918-.12975511-.066449-.19440817l-.0372653-.18273469c-.0273877-.25995919.0408572-.51183674.22-.74889796.2994694-.396.6038776-.78751021.9064898-1.18126531.1369388-.17779592.2734286-.35648979.4139592-.53967347-.7403673-.93567347-1.5732245-1.76763265-2.5097959-2.49767347-.0157143.01212245-.0260408.02020409-.0386123.02963266l-.0116734-.05791837c-.550449.42383673-1.1026939.84453061-1.65 1.2715102-.3677143.28555102-.7605715.34975511-1.1803674.14546939-.4786122-.23257143-.9688979-.43281632-1.4717551-.60657143-.2985714-.1032653-.5037551-.29048979-.6191428-.54820408-.0296327-.07812245-.0538776-.15938775-.067347-.24918367-.1001224-.69142857-.1867755-1.38510204-.2729796-2.07877551-.0044898-.03546939-.0152653-.05612245-.0300816-.0727347-.0026939-.02559183-.0062857-.05028571-.0098775-.07542857-1.1866531-.13873469-2.3661225-.13783673-3.5451429.00763266-.0062857.04040816-.0107755.07004081-.0148163.10012244-.088898.68110205-.17555105 1.36444898-.2666939 2.04555102-.05702041.42383674-.28330613.72869388-.68693878.87236735-.52440816.18632653-1.0362449.3982449-1.53820408.63889796-.37265306.17869388-.74351021.13514286-1.07261225-.10955102-.56077551-.41755102-1.11346938-.84632653-1.66616326-1.27510204-.06555102-.05163265-.10506123-.04489796-.15938776.00269388-.37893877.33763265-.76730612.66628571-1.13816326 1.01334694-.44314286.41620408-.84363265.87371428-1.22122449 1.34963265-.02918368.03681633-.05297959.07183673-.03097959.12122449-.0044898.00538775-.00942857.01032653-.01391837.01571428.02469388.03367347.04534694.06285715.06734694.09114286.41755102.54146939.83779592 1.08204082 1.25310204 1.6257551.05028571.066.08665306.1342449.12122449.2024898.12481633.29542857.11673469.60297959-.05163265.93297959-.23077551.45257143-.41485715.92444898-.57918368 1.40485714-.14591837.4269796-.45122449.67077551-.89661224.73138776-.62991837.0857551-1.2584898.16657142-1.88795919.25053062-.08261224.0103265-.16612245.022449-.25142857.0336735-.02289796.1930612-.01885714.3843265-.03367347.5769387-.00269387.023796-.00583673.0475919-.00763265.0709388-.00269388.0345714-.00089796.0695918-.00314286.1041633-.06330612.9311837-.06555102 1.8592245.04759184 2.7890612.00583673.000898.01032653.0017959.01661224.0026939.00853062.0341224.02514286.0561224.07453062.0619592.67706122.0835102 1.35322449.1737551 2.02893877.2586122.46559184.0579184.78481633.2958776.93702041.7421633.16702041.4884898.36277551.9639592.59444898 1.4259592.03322449.0673469.04983673.1328979.07004082.1997959.08395918.2999183.03142857.5966939-.16702041.8674285-.26669388.3627756-.54595919.7170205-.82028572 1.0739592-.17330612.2271837-.34661224.4534694-.51946938.6779592.00853061.0166123.01257142.0278367.0197551.0372653.00134694.001347.00269388.0031429.00404081.0049388l-.00808163.0103265c.00718367.0134694.00987755.0193061.01302041.0237959.08979592.1140409.19395918.2119184.28644898.3228164.0197551.0233469.03771428.0475918.05746939.0704898.02693877.0309796.05702041.0583673.08395918.0884489.61240816.7107347 1.27240816 1.3747756 2.01187755 1.9575511.05522449.044.08261225.0179592.12212245-.0125715.55493878-.4274285 1.10808163-.8588979 1.66616327-1.2813877.32685714-.2469388.69367347-.2999184 1.06363265-.1275102.51722449.241102 1.04297959.4570612 1.57995918.6501224.27971429.1001225.46918368.286.57559184.5347347.03457143.0902449.06106122.1876735.07542857.2949796.06734694.5091429.13379592 1.0187347.20114286 1.5283265.0260408.1975511.0525306.396.0785714.5908572.0148164.0044898.0206531.0071837.0260408.0080816h.0035919c.0282857.0417551.0785714.0534286.1997959.0695919.0237959.0031428.0475918.0062857.0722857.0080816.7547347.0740816 1.5126123.0915918 2.2700408.0480408.3035102-.0179592.6056735-.0502857.9082857-.0776735.0475919-.0044898.0875511-.0089796.0965307-.0790204.086204-.6873877.1777959-1.3747755.2675918-2.0626122.0570204-.439551.2922857-.7471021.7089388-.8948163.5082449-.1791429 1.0048163-.3816327 1.4888163-.6195919.3946531-.1921632.7762857-.1481632 1.1273877.1158368.2882449.2159591.572898.4368571.859347.6559591.285551.2182041.571551.4377551.8615918.6591021.9370204-.7394694 1.7730204-1.5736735 2.5066531-2.5097959-.0188572-.0255919-.0327755-.0435511-.0466939-.0628572-.0026939-.0125714 0-.0233469-.0125714-.0399592-.4260817-.5468571-.8481225-1.0968571-1.2710612-1.6450612-.0637551-.0826122-.1126939-.1674694-.1522041-.2532245-.1019184-.2487347-.1055102-.5127347.0193061-.7794286.2446939-.526653.4646939-1.0609387.6640408-1.604653l.3326939-.5033061c.1396326-.0987755.3039592-.1679184.5001633-.1953062.3569387-.0507347.7143265-.0956326 1.0721632-.1432244.3578368-.0471429.7152245-.0942858 1.0771021-.1427756.1405306-1.1839591.1414285-2.3634285-.0022449-3.542" fill="#fca326"/><path d="m14.4530571 14.4612735c-1.4008163 1.4044081-3.6753469 1.407551-5.07930608.0067347-1.40440816-1.4008164-1.408-3.675347-.00673469-5.07975514 1.40036737-1.40485714 3.67444897-1.40755102 5.07885717-.00673469 1.4048571 1.40081633 1.408 3.67489793.0071836 5.07975513zm9.2615511-4.3488164c-.0408572-.0058367-.0704898-.0103265-.1005715-.0143673-.682-.088-1.3653469-.17375511-2.0473469-.26444898-.351551-.0462449-.6204898-.21730613-.7812245-.50689796-.0282857-.05522449-.0615102-.10506123-.0835102-.16836735-.1728571-.50240816-.3780408-.99044898-.6097143-1.46861224-.0323265-.06510205-.0475918-.12975511-.066449-.19440817l-.0372653-.18273469c-.0273877-.25995919.0408572-.51183674.22-.74889796.2994694-.396.6038776-.78751021.9064898-1.18126531.1369388-.17779592.2734286-.35648979.4139592-.53967347-.7403673-.93567347-1.5732245-1.76763265-2.5097959-2.49767347-.0157143.01212245-.0260408.02020409-.0386123.02963266l-.0116734-.05791837c-.550449.42383673-1.1026939.84453061-1.65 1.2715102-.3677143.28555102-.7605715.34975511-1.1803674.14546939-.4786122-.23257143-.9688979-.43281632-1.4717551-.60657143-.2985714-.1032653-.5037551-.29048979-.6191428-.54820408-.0296327-.07812245-.0538776-.15938775-.067347-.24918367-.1001224-.69142857-.1867755-1.38510204-.2729796-2.07877551-.0044898-.03546939-.0152653-.05612245-.0300816-.0727347-.0026939-.02559183-.0062857-.05028571-.0098775-.07542857-1.1866531-.13873469-2.3661225-.13783673-3.5451429.00763266-.0062857.04040816-.0107755.07004081-.0148163.10012244-.088898.68110205-.17555105 1.36444898-.2666939 2.04555102-.05702041.42383674-.28330613.72869388-.68693878.87236735-.52440816.18632653-1.0362449.3982449-1.53820408.63889796-.37265306.17869388-.74351021.13514286-1.07261225-.10955102-.56077551-.41755102-1.11346938-.84632653-1.66616326-1.27510204-.06555102-.05163265-.10506123-.04489796-.15938776.00269388-.37893877.33763265-.76730612.66628571-1.13816326 1.01334694-.44314286.41620408-.84363265.87371428-1.22122449 1.34963265-.02918368.03681633-.05297959.07183673-.03097959.12122449-.0044898.00538775-.00942857.01032653-.01391837.01571428.02469388.03367347.04534694.06285715.06734694.09114286.41755102.54146939.83779592 1.08204082 1.25310204 1.6257551.05028571.066.08665306.1342449.12122449.2024898.12481633.29542857.11673469.60297959-.05163265.93297959-.23077551.45257143-.41485715.92444898-.57918368 1.40485714-.14591837.4269796-.45122449.67077551-.89661224.73138776-.62991837.0857551-1.2584898.16657142-1.88795919.25053062-.08261224.0103265-.16612245.022449-.25142857.0336735-.02289796.1930612-.01885714.3843265-.03367347.5769387-.00269387.023796-.00583673.0475919-.00763265.0709388-.00269388.0345714-.00089796.0695918-.00314286.1041633-.06330612.9311837-.06555102 1.8592245.04759184 2.7890612.00583673.000898.01032653.0017959.01661224.0026939.00853062.0341224.02514286.0561224.07453062.0619592.67706122.0835102 1.35322449.1737551 2.02893877.2586122.46559184.0579184.78481633.2958776.93702041.7421633.16702041.4884898.36277551.9639592.59444898 1.4259592.03322449.0673469.04983673.1328979.07004082.1997959.08395918.2999183.03142857.5966939-.16702041.8674285-.26669388.3627756-.54595919.7170205-.82028572 1.0739592-.17330612.2271837-.34661224.4534694-.51946938.6779592.00853061.0166123.01257142.0278367.0197551.0372653.00134694.001347.00269388.0031429.00404081.0049388l-.00808163.0103265c.00718367.0134694.00987755.0193061.01302041.0237959.08979592.1140409.19395918.2119184.28644898.3228164.0197551.0233469.03771428.0475918.05746939.0704898.02693877.0309796.05702041.0583673.08395918.0884489.61240816.7107347 1.27240816 1.3747756 2.01187755 1.9575511.05522449.044.08261225.0179592.12212245-.0125715.55493878-.4274285 1.10808163-.8588979 1.66616327-1.2813877.32685714-.2469388.69367347-.2999184 1.06363265-.1275102.51722449.241102 1.04297959.4570612 1.57995918.6501224.27971429.1001225.46918368.286.57559184.5347347.03457143.0902449.06106122.1876735.07542857.2949796.06734694.5091429.13379592 1.0187347.20114286 1.5283265.0260408.1975511.0525306.396.0785714.5908572.0148164.0044898.0206531.0071837.0260408.0080816h.0035919c.0282857.0417551.0785714.0534286.1997959.0695919.0237959.0031428.0475918.0062857.0722857.0080816.7547347.0740816 1.5126123.0915918 2.2700408.0480408.3035102-.0179592.6056735-.0502857.9082857-.0776735.0475919-.0044898.0875511-.0089796.0965307-.0790204.086204-.6873877.1777959-1.3747755.2675918-2.0626122.0570204-.439551.2922857-.7471021.7089388-.8948163.5082449-.1791429 1.0048163-.3816327 1.4888163-.6195919.3946531-.1921632.7762857-.1481632 1.1273877.1158368.2882449.2159591.572898.4368571.859347.6559591.285551.2182041.571551.4377551.8615918.6591021.9370204-.7394694 1.7730204-1.5736735 2.5066531-2.5097959-.0188572-.0255919-.0327755-.0435511-.0466939-.0628572-.0026939-.0125714 0-.0233469-.0125714-.0399592-.4260817-.5468571-.8481225-1.0968571-1.2710612-1.6450612-.0637551-.0826122-.1126939-.1674694-.1522041-.2532245-.1019184-.2487347-.1055102-.5127347.0193061-.7794286.2446939-.526653.4646939-1.0609387.6640408-1.604653l.3326939-.5033061c.1396326-.0987755.3039592-.1679184.5001633-.1953062.3569387-.0507347.7143265-.0956326 1.0721632-.1432244.3578368-.0471429.7152245-.0942858 1.0771021-.1427756.1405306-1.1839591.1414285-2.3634285-.0022449-3.542z" stroke="#333" stroke-linecap="round" stroke-linejoin="round" stroke-width="2"/></g></svg>